#define GBBopen_width 16
#define GBBopen_height 16
static unsigned char GBBopen_bits[] = {
   0xff, 0xff, 0x7f, 0x70, 0x1f, 0x0e, 0x8f, 0x9f, 0x87, 0x9f, 0xc3, 0xbf,
   0xc3, 0xbf, 0xe1, 0xff, 0xe1, 0xff, 0xe1, 0x01, 0xe1, 0xc7, 0xe1, 0xc7,
   0xe3, 0xc3, 0xc7, 0xe1, 0x0f, 0xec, 0xff, 0xff };
